# Blender v2.81 (sub 16) OBJ File: 'scene.blend'
# www.blender.org
mtllib gem2.mtl
o Gem2_Cube.002
v 0.716891 0.201703 -1.339793
v 0.729552 0.201686 -1.360021
v 0.678791 0.087623 -1.436257
v 0.626048 0.087697 -1.351987
v 0.650863 0.043562 -1.294928
v 0.725780 0.043613 -1.248039
v 0.724830 0.087814 -1.236171
v 0.640561 0.087757 -1.288914
v 0.719341 0.002781 -1.404294
v 0.794258 0.002832 -1.357405
v 0.747369 0.002898 -1.282488
v 0.672452 0.002847 -1.329377
v 0.749780 0.201699 -1.347361
v 0.826133 0.087673 -1.398027
v 0.741863 0.087616 -1.450770
v 0.637960 0.043509 -1.351001
v 0.737120 0.201717 -1.327132
v 0.781852 0.043606 -1.260941
v 0.684850 0.043443 -1.425918
v 0.740922 0.043437 -1.438820
v 0.815839 0.043487 -1.391930
v 0.828742 0.043541 -1.335858
v 0.787903 0.087807 -1.250685
v 0.840646 0.087733 -1.334954
vt 0.979075 0.020925
vt 0.020925 0.979075
vt 0.020925 0.020925
vt 0.979075 0.020925
vt 0.020925 0.979075
vt 0.020925 0.020925
vt 0.979075 0.020925
vt 0.020925 0.979075
vt 0.020925 0.020925
vt 0.979075 0.020925
vt 0.020925 0.979075
vt 0.020925 0.020925
vt 0.020925 0.020925
vt 0.979075 0.020925
vt 0.979075 0.979075
vt 0.020925 0.020925
vt 0.979075 0.979075
vt 0.020925 0.979075
vt 0.020925 0.020925
vt 0.979075 0.020925
vt 0.979075 0.979075
vt 0.020925 0.020925
vt 0.979075 0.979075
vt 0.979075 0.020925
vt 0.979075 0.979075
vt 0.020925 0.020925
vt 0.979075 0.020925
vt 0.979075 0.979075
vt 0.979075 0.020925
vt 0.020925 0.020925
vt 0.979075 0.020925
vt 0.020925 0.979075
vt 0.020925 0.020925
vt 0.020925 0.020925
vt 0.979075 0.979075
vt 0.020925 0.979075
vt 0.020925 0.979075
vt 0.979075 0.020925
vt 0.020925 0.979075
vt 0.020925 0.020925
vt 0.979075 0.979075
vt 0.020925 0.979075
vt 0.020925 0.020925
vt 0.020925 0.979075
vt 0.979075 0.020925
vt 0.020925 0.979075
vt 0.020925 0.020925
vt 0.979075 0.020925
vt 0.020925 0.979075
vt 0.020925 0.020925
vt 0.020925 0.020925
vt 0.979075 0.020925
vt 0.979075 0.979075
vt 0.979075 0.020925
vt 0.020925 0.979075
vt 0.979075 0.979075
vt 0.020925 0.979075
vt 0.979075 0.020925
vt 0.020925 0.979075
vt 0.020925 0.979075
vt 0.979075 0.020925
vt 0.979075 0.979075
vt 0.979075 0.979075
vt 0.979075 0.979075
vt 0.979075 0.020925
vt 0.979075 0.979075
vt 0.979075 0.020925
vt 0.979075 0.979075
vn -0.6838 0.5907 -0.4285
vn -0.5159 -0.2324 0.8245
vn 0.0001 -1.0000 0.0009
vn 0.4279 0.5905 -0.6843
vn -0.7956 -0.5773 0.1836
vn -0.4280 0.5917 0.6831
vn 0.1832 -0.5766 0.7962
vn -0.1792 0.6006 -0.7792
vn -0.1830 -0.5781 -0.7952
vn 0.7958 -0.5774 -0.1826
vn -0.9436 -0.2495 0.2174
vn -0.9437 -0.2495 0.2174
vn -0.3751 -0.7066 0.6000
vn 0.6836 0.5916 0.4274
vn 0.5995 -0.7067 0.3758
vn 0.3752 -0.7076 -0.5987
vn 0.7786 0.6012 -0.1797
vn -0.5993 -0.7075 -0.3745
vn -0.2171 -0.2506 -0.9434
vn 0.9437 -0.2498 -0.2169
vn 0.2172 -0.2488 0.9439
vn 0.1791 0.6021 0.7781
vn 0.8243 -0.2326 0.5161
vn -0.8243 -0.2337 -0.5157
vn 0.5159 -0.2339 -0.8241
vn -0.0001 1.0000 -0.0009
vn -0.7787 0.6014 0.1786
usemtl ruby
s 1
f 2/1/1 4/2/1 1/3/1
f 6/4/2 8/5/2 5/6/2
f 10/7/3 12/8/3 9/9/3
f 13/10/4 15/11/4 2/12/4
f 16/13/5 12/14/5 5/15/5
f 8/16/6 17/17/6 1/18/6
f 11/19/7 18/20/7 6/21/7
f 3/22/8 2/1/8 15/23/8
f 9/9/9 19/24/9 20/25/9
f 10/26/10 21/27/10 22/28/10
f 16/29/11 8/5/12 4/30/11
f 11/31/13 5/32/13 12/33/13
f 13/34/14 23/35/14 24/36/14
f 10/7/15 18/37/15 11/19/15
f 9/38/16 21/39/16 10/26/16
f 14/40/17 13/10/17 24/41/17
f 12/14/18 19/42/18 9/9/18
f 19/43/19 15/23/19 20/44/19
f 14/45/20 22/46/20 21/47/20
f 23/48/21 6/49/21 18/50/21
f 23/51/22 17/52/22 7/53/22
f 22/54/23 23/55/23 18/50/23
f 19/43/24 4/56/24 3/57/24
f 20/58/25 14/59/25 21/47/25
f 17/52/26 2/60/26 1/3/26
f 8/16/27 1/61/27 4/56/27
f 2/1/1 3/62/1 4/2/1
f 6/4/2 7/53/2 8/5/2
f 10/7/3 11/63/3 12/8/3
f 13/10/4 14/64/4 15/11/4
f 8/16/6 7/65/6 17/17/6
f 16/29/11 5/15/12 8/5/12
f 11/31/13 6/21/13 5/32/13
f 13/34/14 17/52/14 23/35/14
f 10/7/15 22/28/15 18/37/15
f 9/38/16 20/25/16 21/39/16
f 12/14/18 16/66/18 19/42/18
f 19/43/19 3/67/19 15/23/19
f 14/45/20 24/41/20 22/46/20
f 23/48/21 7/53/21 6/49/21
f 22/54/23 24/41/23 23/55/23
f 19/43/24 16/29/24 4/56/24
f 20/58/25 15/23/25 14/59/25
f 17/52/26 13/68/26 2/60/26
