# Blender v2.81 (sub 16) OBJ File: 'scene.blend'
# www.blender.org
mtllib gem5.mtl
o Gem1_Cube
v 0.937728 0.037975 -1.124248
v 0.795150 0.038013 -1.226469
v 0.795150 0.038013 -1.226469
v 0.937728 0.037975 -1.124248
v 0.904724 0.037599 -1.379304
v 1.047302 0.037562 -1.277082
v 1.047302 0.037562 -1.277082
v 0.904724 0.037599 -1.379304
v 0.884247 0.002620 -1.350755
v 1.026825 0.002582 -1.248533
v 0.958103 0.002842 -1.152679
v 0.815525 0.002880 -1.254901
v 0.986645 0.037891 -1.132312
v 0.986645 0.037891 -1.132312
v 1.055367 0.037631 -1.228165
v 1.055367 0.037631 -1.228165
v 0.815627 0.072992 -1.255018
v 0.958205 0.072955 -1.152796
v 1.026928 0.072695 -1.248650
v 0.884349 0.072733 -1.350871
v 0.787085 0.037944 -1.275385
v 0.855808 0.037684 -1.371239
v 0.855808 0.037684 -1.371239
v 0.787085 0.037944 -1.275385
vt 1.000000 0.000000
vt 0.000000 1.000000
vt 0.000000 0.000000
vt 1.000000 0.000000
vt 0.000000 1.000000
vt 0.000000 0.000000
vt 1.000000 0.000000
vt 0.000000 1.000000
vt 0.000000 0.000000
vt 1.000000 0.000000
vt 0.000000 1.000000
vt 0.000000 0.000000
vt 1.000000 0.000000
vt 0.000000 1.000000
vt 0.000000 0.000000
vt 1.000000 0.000000
vt 1.000000 1.000000
vt 0.000000 0.000000
vt 1.000000 0.000000
vt 1.000000 1.000000
vt 0.000000 0.000000
vt 1.000000 0.000000
vt 1.000000 1.000000
vt 0.000000 0.000000
vt 1.000000 0.000000
vt 1.000000 1.000000
vt 1.000000 0.000000
vt 1.000000 1.000000
vt 0.000000 0.000000
vt 1.000000 0.000000
vt 1.000000 1.000000
vt 0.000000 0.000000
vt 1.000000 0.000000
vt 1.000000 1.000000
vt 0.000000 0.000000
vt 1.000000 1.000000
vt 1.000000 0.000000
vt 0.000000 1.000000
vt 0.000000 1.000000
vt 0.000000 0.000000
vt 1.000000 0.000000
vt 0.000000 1.000000
vt 0.000000 0.000000
vt 1.000000 0.000000
vt 0.000000 1.000000
vt 0.000000 1.000000
vt 1.000000 0.000000
vt 0.000000 1.000000
vt 0.000000 1.000000
vt 0.000000 0.000000
vt 0.000000 1.000000
vt 1.000000 0.000000
vt 0.000000 1.000000
vt 1.000000 0.000000
vt 0.000000 1.000000
vt 1.000000 0.000000
vt 0.000000 1.000000
vt 0.000000 0.000000
vt 0.000000 1.000000
vt 0.000000 0.000000
vt 1.000000 0.000000
vt 0.000000 1.000000
vt 1.000000 1.000000
vt 1.000000 1.000000
vt 1.000000 1.000000
vt 1.000000 1.000000
vt 1.000000 1.000000
vt 1.000000 1.000000
vt 1.000000 1.000000
vt 1.000000 0.000000
vt 1.000000 1.000000
vn 0.0000 0.0000 -0.4621
vn 0.0000 0.0000 -0.9188
vn -0.0001 -0.4719 -0.8816
vn 0.0000 0.0000 0.9117
vn 0.0000 0.0000 0.9698
vn 0.0001 0.2654 0.9641
vn -0.0015 -1.0000 0.0017
vn 0.0753 -0.0315 -0.9967
vn 0.7033 -0.2944 -0.6471
vn 0.0000 0.0000 -0.9993
vn 0.0015 1.0000 -0.0017
vn -0.8048 0.5787 0.1319
vn -0.1320 0.5762 -0.8066
vn -0.1337 -0.5785 -0.8047
vn -0.8065 -0.5760 0.1338
vn 0.1337 0.5785 0.8047
vn 0.8065 0.5759 -0.1338
vn 0.8048 -0.5787 -0.1319
vn 0.1320 -0.5762 0.8066
vn -0.5736 0.7073 -0.4132
vn -0.8268 -0.0069 0.5624
vn 0.1403 0.0012 -0.9901
vn 0.0000 0.0000 0.3681
vn -0.4110 0.7087 0.5735
vn -0.5656 0.0010 0.8246
vn -0.9133 0.0019 0.4072
vn 0.0000 0.0000 0.8183
vn 0.4130 0.7055 -0.5758
vn 0.4130 0.7056 -0.5758
vn -0.5757 -0.7070 -0.4108
vn -0.5757 -0.7069 -0.4108
vn 0.4110 -0.7087 -0.5735
vn -0.4130 -0.7055 0.5758
vn 0.5757 0.7070 0.4108
vn 0.3786 -0.2534 -0.8902
vn 0.8076 -0.5404 -0.2364
vn 0.0000 0.0000 -0.8803
vn 0.7831 -0.4889 -0.3844
vn 0.2485 -0.1551 0.9561
vn 0.0000 0.0000 -0.2092
vn 0.5736 -0.7073 0.4132
vn 0.0000 0.0000 -0.6471
vn 0.0000 0.0000 -0.9967
vn -0.0340 0.0142 -0.9993
vn -0.0002 -0.8441 -0.5362
vn 0.0001 0.3906 0.9206
vn 0.0000 0.0000 -0.7327
vn 0.0000 0.0000 -0.9990
vn 0.0000 0.0000 0.4242
vn 0.4130 0.7055 -0.5759
vn 0.0000 0.0000 -0.2608
vn 0.0000 0.0000 0.9181
vn 0.6277 -0.2628 -0.7327
usemtl ruby
s 1
f 2/1/1 4/2/2 1/3/3
f 6/4/4 8/5/5 5/6/6
f 10/7/7 12/8/7 9/9/7
f 14/10/8 16/11/9 13/12/10
f 18/13/11 20/14/11 17/15/11
f 17/15/12 21/16/12 2/17/12
f 20/18/13 5/19/13 22/20/13
f 8/21/14 9/22/14 23/23/14
f 3/24/15 24/25/15 12/26/15
f 1/3/16 13/27/16 18/28/16
f 6/29/17 19/30/17 16/31/17
f 10/32/18 7/33/18 15/34/18
f 11/35/19 14/10/19 4/36/19
f 20/37/20 21/38/20 17/15/20
f 24/25/21 2/39/22 21/40/23
f 1/41/24 17/42/24 2/43/24
f 8/44/25 22/45/26 5/6/27
f 19/30/28 5/46/28 20/18/29
f 12/47/30 23/48/31 9/9/31
f 7/33/32 9/49/32 8/21/32
f 12/50/33 4/36/33 3/51/33
f 16/52/34 18/53/34 13/12/34
f 4/54/35 13/55/36 1/3/37
f 15/56/38 6/57/39 16/58/40
f 14/10/41 10/59/41 15/60/41
f 22/61/42 24/62/43 21/40/44
f 2/1/1 3/63/45 4/2/2
f 6/4/4 7/64/46 8/5/5
f 10/7/7 11/65/7 12/8/7
f 14/10/8 15/34/47 16/11/9
f 18/13/11 19/66/11 20/14/11
f 20/37/20 22/20/20 21/38/20
f 24/25/21 3/63/48 2/39/22
f 1/41/24 18/28/24 17/42/24
f 8/44/25 23/23/49 22/45/26
f 19/30/28 6/67/50 5/46/28
f 12/47/30 24/68/30 23/48/31
f 7/33/32 10/69/32 9/49/32
f 12/50/33 11/70/33 4/36/33
f 16/52/34 19/66/34 18/53/34
f 4/54/35 14/71/51 13/55/36
f 15/56/38 7/64/52 6/57/39
f 14/10/41 11/65/41 10/59/41
f 22/61/42 23/23/53 24/62/43
