# Blender v2.81 (sub 16) OBJ File: 'scene.blend'
# www.blender.org
mtllib key.mtl
o Key1_Cube.008
v 0.189425 0.017628 1.844398
v 0.189442 0.064301 1.845289
v 0.268655 0.064274 1.845274
v 0.268639 0.017600 1.844383
v 0.268666 0.014735 1.994466
v 0.268683 0.061410 1.995357
v 0.268687 0.060864 2.023908
v 0.268671 0.014190 2.023017
v 0.189474 0.060893 2.023923
v 0.189457 0.014218 2.023032
v 0.189430 0.017083 1.872949
v 0.189447 0.063757 1.873840
v 0.189452 0.014762 1.994480
v 0.268661 0.063729 1.873826
v 0.189468 0.061437 1.995371
v 0.268644 0.017054 1.872935
v 0.318905 0.061392 1.995347
v 0.318882 0.063711 1.873816
v 0.192952 0.079452 1.602412
v 0.193035 0.070527 2.069960
v 0.212569 0.036672 2.069310
v 0.212486 0.045597 1.601763
v 0.153835 0.011768 1.601128
v 0.153920 0.002844 2.068676
v 0.134386 0.036700 2.069325
v 0.134301 0.045624 1.601778
v 0.153943 0.070542 2.069968
v 0.153859 0.079465 1.602420
v 0.193011 0.002830 2.068668
v 0.192927 0.011755 1.601121
v 0.191888 0.015514 1.496771
v 0.154837 0.015528 1.496778
v 0.154957 0.016617 1.451338
v 0.191752 0.016604 1.451332
v 0.148609 0.002836 1.595309
v 0.198144 0.002818 1.595300
v 0.210426 0.047589 1.497379
v 0.191911 0.079678 1.497995
v 0.197140 0.088689 1.499952
v 0.220875 0.047552 1.499163
v 0.153850 0.080395 1.553735
v 0.192942 0.080381 1.553728
v 0.198166 0.089537 1.547844
v 0.148630 0.089555 1.547854
v 0.212476 0.046525 1.553078
v 0.192918 0.012683 1.552436
v 0.198135 0.003755 1.546207
v 0.222918 0.046637 1.547020
v 0.123856 0.045736 1.596133
v 0.153852 0.080152 1.566509
v 0.134294 0.046310 1.565867
v 0.123852 0.046225 1.570488
v 0.148634 0.089107 1.571303
v 0.192685 0.013819 1.513464
v 0.154045 0.013832 1.513472
v 0.149311 0.005677 1.511531
v 0.197412 0.005661 1.511522
v 0.212479 0.046282 1.565852
v 0.192920 0.012440 1.565209
v 0.148639 0.088618 1.596947
v 0.153828 0.012454 1.565217
v 0.153826 0.012698 1.552444
v 0.134292 0.046553 1.553093
v 0.123847 0.046673 1.547040
v 0.198175 0.088600 1.596937
v 0.154860 0.079691 1.498002
v 0.136322 0.047615 1.497394
v 0.125874 0.047585 1.499180
v 0.149638 0.088707 1.499961
v 0.192945 0.080137 1.566502
v 0.148604 0.003326 1.569665
v 0.198170 0.089090 1.571294
v 0.222927 0.045700 1.596114
v 0.222922 0.046190 1.570470
v 0.198139 0.003308 1.569656
v 0.212018 0.047270 1.514100
v 0.148600 0.003773 1.546216
v 0.134735 0.047298 1.514114
v 0.154068 0.080749 1.514749
v 0.192710 0.080735 1.514742
v 0.197442 0.088959 1.513112
v 0.149341 0.088975 1.513121
v 0.197110 0.006431 1.498382
v 0.149609 0.006448 1.498391
v 0.125275 0.047334 1.512330
v 0.191775 0.080323 1.452548
v 0.154980 0.080336 1.452555
v 0.210161 0.048457 1.451936
v 0.136571 0.048483 1.451950
v 0.196847 0.036418 2.082930
v 0.185156 0.016189 2.082546
v 0.161790 0.016198 2.082550
v 0.150113 0.036434 2.082938
v 0.161803 0.056662 2.083323
v 0.185170 0.056655 2.083318
v 0.318866 0.017036 1.872925
v 0.318888 0.014717 1.994456
v 0.032327 0.086147 1.339036
v 0.045197 0.084670 1.416214
v 0.081745 0.085073 1.394392
v 0.072513 0.086133 1.339029
v 0.174477 0.088420 1.217342
v 0.130543 0.088435 1.217351
v 0.129135 0.087779 1.251740
v 0.174485 0.087534 1.263757
v 0.303829 0.084578 1.416166
v 0.316670 0.086047 1.338982
v 0.276484 0.086061 1.338990
v 0.267273 0.085007 1.394357
v 0.130587 0.083791 1.460684
v 0.129166 0.084447 1.426295
v 0.045170 0.087616 1.261853
v 0.081724 0.087187 1.283662
v 0.303800 0.087525 1.261805
v 0.267253 0.087122 1.283627
v 0.174521 0.083775 1.460676
v 0.218454 0.083759 1.460668
v 0.219863 0.084415 1.426278
v 0.174512 0.084732 1.410561
v 0.218410 0.088404 1.217335
v 0.219831 0.087748 1.251724
v 0.032305 0.020779 1.337788
v 0.072489 0.020766 1.337781
v 0.081721 0.019705 1.393144
v 0.045173 0.019302 1.414966
v 0.174454 0.023052 1.216094
v 0.174462 0.022166 1.262509
v 0.129111 0.022412 1.250493
v 0.130521 0.023067 1.216103
v 0.303805 0.019210 1.414918
v 0.267249 0.019640 1.393109
v 0.276462 0.020693 1.337743
v 0.316646 0.020679 1.337734
v 0.129143 0.019079 1.425047
v 0.130565 0.018423 1.459437
v 0.081702 0.021819 1.282414
v 0.045146 0.022248 1.260605
v 0.267230 0.021754 1.282379
v 0.303778 0.022157 1.260557
v 0.174498 0.018407 1.459429
v 0.174489 0.019364 1.409314
v 0.219840 0.019048 1.425030
v 0.218430 0.018391 1.459420
v 0.219808 0.022380 1.250476
v 0.218386 0.023037 1.216087
v 0.221478 0.047301 1.512313
vt 2.015328 1.497722
vt 2.264763 1.075548
vt 2.264763 1.497724
vt 2.251983 2.336411
vt 2.404510 2.095781
vt 2.404510 2.337374
vt -1.079308 1.991073
vt -0.829866 2.413246
vt -1.079308 2.413248
vt -1.079305 1.838884
vt -0.829868 1.991073
vt -1.079303 1.991073
vt -0.468683 0.086771
vt -0.045422 0.238947
vt -0.468685 0.238945
vt -1.005383 1.038877
vt -1.428644 0.886702
vt -1.005381 0.886697
vt -1.428651 0.238947
vt -1.005387 0.238941
vt -0.468687 0.886700
vt -0.829866 1.191072
vt -1.079308 1.191072
vt -0.737034 0.238943
vt -0.737034 0.886698
vt 2.251983 2.093857
vt 2.404517 1.853226
vt 2.404517 2.094818
vt -0.468683 1.038880
vt -0.045424 0.886702
vt -0.045420 1.038877
vt -1.079303 1.038877
vt -1.428648 0.086766
vt -1.005389 0.086766
vt 1.885053 -1.428651
vt 1.734365 1.066501
vt 1.734363 -1.424950
vt 1.171955 1.064174
vt 1.352849 -1.428651
vt 1.352855 1.063580
vt 1.533747 1.064172
vt 2.093938 -1.428646
vt 1.885059 1.063357
vt 1.533747 -1.426435
vt 2.302818 1.063353
vt 2.093938 -1.428651
vt 2.302817 -1.428648
vt 0.653271 2.164653
vt 0.455984 1.922421
vt 0.652589 1.922425
vt 1.340938 1.131204
vt 1.570157 1.207546
vt 1.521831 1.235378
vt 1.789965 1.643954
vt 1.570162 1.714842
vt 1.789963 1.588266
vt 1.063386 1.235378
vt 0.882491 1.075548
vt 1.111714 1.207548
vt 0.701594 1.443723
vt 0.653271 1.207552
vt 0.701596 1.235379
vt 1.160041 1.235379
vt 1.340938 1.075548
vt 0.002905 1.833332
vt -0.045420 1.597162
vt 0.002903 1.624989
vt 1.613929 1.434876
vt 1.570157 1.203730
vt 1.613930 1.228939
vt -0.758933 1.670553
vt -0.824417 1.470038
vt -0.756174 1.470466
vt 1.160041 1.443719
vt 1.111714 1.207550
vt 2.302818 -0.159065
vt 2.371077 -0.367404
vt 2.371077 -0.159061
vt 1.111714 1.471549
vt 1.063384 1.443721
vt 2.303415 -0.623767
vt 2.371081 -0.804196
vt 2.371680 -0.623765
vt 1.340938 1.603551
vt 1.111714 1.471551
vt 2.303415 -0.984628
vt 2.371680 -0.984628
vt 1.618513 1.940156
vt 1.789963 2.094577
vt 1.570157 1.968001
vt 2.264763 1.547900
vt 2.333021 1.339556
vt 2.333021 1.547898
vt 0.183801 1.993158
vt -0.045420 1.861162
vt -0.824417 1.820447
vt -0.756174 1.820875
vt 1.006112 0.988052
vt 1.139614 0.798432
vt 1.143110 0.988916
vt 2.264763 1.075548
vt 2.401793 1.339552
vt 2.264763 1.339552
vt 1.002617 0.315399
vt 1.140419 0.086771
vt 1.139665 0.315401
vt 1.003370 0.544031
vt 1.140419 0.544030
vt 0.592330 2.428650
vt 0.455294 2.164653
vt 0.592330 2.164653
vt 1.002617 0.797569
vt 1.143110 0.544896
vt 1.353605 1.857088
vt 1.533755 1.646552
vt 1.531028 1.844329
vt 2.428650 1.588266
vt 2.251984 1.823235
vt 2.251983 1.617297
vt 0.653271 1.872137
vt 0.476402 1.693788
vt 0.652682 1.693785
vt 0.477153 1.465157
vt 0.653271 1.515438
vt 1.819597 2.123610
vt 1.996269 2.358581
vt 1.819604 2.329553
vt 1.357100 2.047571
vt 1.533755 1.992920
vt 0.364699 1.624987
vt 0.413021 1.861161
vt 0.364697 1.833334
vt 0.183801 1.465157
vt 0.183803 1.520816
vt 1.570157 1.471547
vt 1.521835 1.443724
vt 0.882489 1.547892
vt 0.653271 1.471553
vt 1.971549 1.228935
vt 2.015323 1.460084
vt 1.971548 1.434878
vt 1.961415 1.940157
vt 2.009769 1.714847
vt 2.009769 1.968002
vt 0.882491 1.131208
vt 0.183801 1.937502
vt 0.413021 1.597160
vt 1.792742 1.537851
vt 1.570157 1.460088
vt 0.882491 1.603551
vt 1.340940 1.547895
vt 1.353605 2.289799
vt 1.550892 2.047571
vt 1.551581 2.289799
vt 0.198006 2.182803
vt 0.443247 1.995458
vt 0.440820 2.183788
vt -0.044857 2.335179
vt 0.197445 2.164166
vt 0.198006 2.333997
vt 0.443539 2.325277
vt 0.200748 2.325277
vt -0.044855 1.993158
vt -0.045420 2.164170
vt -0.401054 1.961625
vt -0.230787 2.255773
vt -0.401054 2.157725
vt -0.230787 1.863571
vt -0.060520 2.157722
vt -0.401054 2.174205
vt -0.473819 2.007768
vt -0.401054 1.965861
vt -0.581950 1.861695
vt -0.581950 1.945504
vt -0.762844 1.965866
vt -0.690076 2.007772
vt -0.690076 2.132303
vt -0.762844 2.174211
vt -0.581950 2.194571
vt -0.581948 2.278378
vt -0.473821 2.132304
vt 1.819597 2.362234
vt 1.570157 2.094578
vt 1.819597 2.094577
vt -1.428651 2.027663
vt -1.179209 2.295324
vt -1.428651 2.295325
vt -0.737034 0.238947
vt 2.009769 2.237401
vt 2.251983 1.588266
vt 2.251983 2.235877
vt -0.778511 0.086766
vt -1.074362 -0.176556
vt -0.778509 -0.127404
vt -0.128348 -0.670935
vt -0.312120 -0.429252
vt -0.376374 -0.670937
vt -0.778486 -1.428651
vt -1.074343 -1.165338
vt -1.190919 -1.360143
vt -1.428651 -0.436807
vt -1.190938 0.018246
vt -0.128352 -0.436788
vt -0.482653 -0.176546
vt -0.482637 -1.165332
vt -0.778490 -1.214479
vt -1.428651 -0.670954
vt -1.244879 -0.912638
vt -1.160852 -0.670949
vt -0.366079 0.018255
vt -0.128348 -0.905077
vt -0.366060 -1.360130
vt -1.428644 -0.905096
vt 0.521799 0.086762
vt 0.817654 -0.176550
vt 0.934226 0.018255
vt -0.128348 -0.670949
vt 0.055417 -0.429263
vt -0.128348 -0.436807
vt 0.817659 -1.165332
vt 0.521808 -1.428651
vt 0.934238 -1.360134
vt 1.171955 -0.436796
vt 0.225946 -0.176556
vt 0.109368 0.018246
vt 0.225953 -1.165338
vt 0.109381 -1.360145
vt 1.171954 -0.670939
vt 0.988189 -0.912627
vt 1.171955 -0.905081
vt -0.128342 -0.905092
vt -0.045420 0.775958
vt 0.303921 0.541812
vt 0.303921 0.775960
vt 1.002614 0.581155
vt 0.653272 0.822845
vt 0.653272 0.581155
vt 1.353605 1.603551
vt 1.004262 1.898389
vt 1.004263 1.603551
vt -0.045418 0.086766
vt 0.303926 0.086769
vt 0.653275 0.086766
vt 1.002612 0.339469
vt 0.653271 0.339467
vt -1.428648 1.774955
vt -1.079308 2.027662
vt -1.428651 2.027663
vt -0.401054 1.861693
vt -0.750397 1.449896
vt -0.401054 1.449893
vt 1.353605 1.898396
vt 1.004262 2.193788
vt -1.428651 1.533270
vt -1.079308 1.774952
vt -0.750395 1.038882
vt -0.401054 1.038880
vt -1.428651 1.038877
vt -1.079308 1.291582
vt -1.428651 1.291584
vt 0.653271 0.086766
vt 0.303926 0.541818
vt 0.303930 0.086766
vt 0.653271 1.899488
vt 1.004262 1.603551
vt 0.992488 1.897355
vt 0.653267 0.775967
vt 0.303928 1.010108
vt 0.303926 0.775967
vt -0.401054 1.450590
vt -0.045420 1.861434
vt -0.384637 1.863571
vt 1.004262 2.193604
vt 0.653270 1.465156
vt 0.303928 1.465157
vt 0.303926 1.465154
vt -0.045420 1.010101
vt 0.303923 1.010103
vt 1.002617 1.075548
vt 0.653275 1.075548
vt -0.045420 1.038880
vt -0.384637 1.041016
vt 0.988183 -0.429257
vt -1.244885 -0.429261
vt -1.079309 1.533267
vt 0.055423 -0.912633
vt -0.312113 -0.912623
vt 2.302818 -0.369006
vt 2.373125 -0.623765
vt 2.373125 -0.367406
vt -1.079308 2.282420
vt -1.149616 2.027663
vt -1.079308 2.029265
vt 2.373110 -1.206637
vt 2.303546 -1.428651
vt 2.373830 -1.425878
vt 2.303546 -0.984628
vt 2.302818 -1.206637
vt -0.759528 1.284750
vt -0.826467 1.038877
vt -0.756174 1.041624
vt -0.756174 1.467402
vt -0.829864 1.285071
vt 1.961417 1.742690
vt 1.792737 1.588266
vt 1.789965 2.038893
vt 1.792737 1.125967
vt 2.015323 1.203727
vt 1.792737 1.075548
vt 1.618510 1.742689
vt 2.015323 1.075551
vt 2.251983 2.094818
vt -0.829866 1.991075
vt -0.829864 1.838884
vt -0.045420 0.086766
vt -1.428642 1.038877
vt 2.251983 1.852264
vt -0.829864 1.038877
vt 1.885053 1.062801
vt 1.171955 -1.428056
vt 1.533747 -1.428058
vt 2.093938 1.063361
vt 1.533748 1.065011
vt 2.093939 1.063357
vt 0.455294 2.164653
vt -0.827176 1.670126
vt 2.302818 -0.367406
vt 2.302818 -0.804198
vt 2.264763 1.339552
vt 2.401800 1.075549
vt 1.003370 0.086766
vt 0.455294 2.428650
vt 1.006107 0.544031
vt 1.357094 1.603551
vt 2.428650 1.852264
vt 0.477157 1.922421
vt 1.996269 2.094577
vt 1.354286 2.047573
vt 0.200450 1.993158
vt 0.198006 1.994339
vt -0.060520 1.961621
vt 1.570157 2.362236
vt -1.179209 2.027665
vt -0.737034 0.886703
vt 2.009771 1.589791
vt 0.521801 -0.127404
vt 0.119678 -0.670947
vt 0.521811 -1.214486
vt 0.904155 -0.670941
vt -0.045420 0.541816
vt 1.002614 0.822840
vt 1.002617 0.086766
vt -0.750395 1.861695
vt 1.353605 2.193790
vt -1.079308 1.038880
vt 0.653269 0.541823
vt 0.665046 1.605684
vt 0.653270 1.010108
vt -0.061836 1.448454
vt 0.665046 2.195739
vt -0.045418 1.465157
vt 2.302817 -0.622168
vt -1.149616 2.284022
vt 2.373830 -0.987396
vt -0.826467 1.470038
vn -0.0002 0.0191 -0.9998
vn 1.0000 -0.0004 -0.0002
vn 0.0002 -0.0191 0.9998
vn -1.0000 0.0004 0.0002
vn -0.0004 -0.9998 -0.0191
vn 0.0004 0.9998 0.0191
vn -1.0000 0.0003 0.0002
vn 1.0000 -0.0003 -0.0002
vn 0.8662 0.4996 0.0094
vn -0.8662 -0.4996 -0.0094
vn -0.8659 0.5002 0.0097
vn -0.8658 0.5002 0.0097
vn 0.0003 0.9998 0.0191
vn 0.8659 -0.5002 -0.0097
vn 0.8658 -0.5002 -0.0097
vn -0.0003 -0.9998 -0.0191
vn -0.0004 -0.9997 -0.0240
vn -0.0000 -0.5458 0.8379
vn 0.1676 0.1155 -0.9791
vn 0.0004 0.5404 0.8414
vn 0.0003 0.5405 0.8414
vn 0.4819 -0.2942 0.8253
vn 0.4820 -0.2942 0.8253
vn -0.4587 -0.2808 0.8431
vn -0.3940 0.2446 -0.8860
vn -0.3941 0.2446 -0.8859
vn 0.0001 -0.2316 0.9728
vn -0.4585 0.2488 0.8532
vn -0.4816 0.2625 0.8362
vn -0.4816 0.2625 0.8361
vn 0.0004 0.5134 0.8582
vn 0.0004 0.5134 0.8581
vn -0.1678 0.1156 -0.9790
vn -0.1678 0.1155 -0.9790
vn -0.3942 -0.2103 -0.8946
vn -0.3942 -0.2103 -0.8947
vn 0.8662 0.4996 0.0093
vn 0.8323 -0.4756 -0.2847
vn -0.0004 -0.9559 -0.2937
vn -0.8327 -0.4750 -0.2844
vn -0.8324 0.4861 -0.2660
vn 0.0003 0.9664 -0.2570
vn 0.8327 0.4855 -0.2664
vn 0.3938 -0.2106 -0.8947
vn 0.0000 0.4719 -0.8816
vn 0.0000 0.4719 -0.8817
vn 0.4588 -0.2811 0.8429
vn -0.0001 -0.5722 0.8201
vn -0.0000 -0.5722 0.8201
vn -0.0000 -0.5721 0.8201
vn 0.0003 0.1943 0.9809
vn 0.0002 0.1942 0.9810
vn -0.0002 -0.1748 -0.9846
vn -0.0003 -0.1748 -0.9846
vn 0.4821 0.2621 0.8360
vn 0.4822 0.2622 0.8359
vn -0.0003 -0.4379 -0.8990
vn -0.0003 -0.4378 -0.8991
vn 0.3940 0.2443 -0.8861
vn -0.1844 -0.1251 0.9749
vn -0.4818 -0.2939 0.8255
vn -0.4819 -0.2939 0.8255
vn 0.4590 0.2485 0.8530
vn 0.0004 0.9999 0.0142
vn 0.0003 0.9999 0.0142
vn 0.8658 -0.5001 -0.0146
vn -0.8662 -0.4995 -0.0143
vn 0.8662 0.4997 0.0045
vn -0.8658 0.5003 0.0048
vn 0.6124 -0.3672 0.7001
vn -0.0001 -0.7205 0.6935
vn -0.6124 -0.3668 0.7004
vn -0.6121 0.3402 0.7138
vn -0.6121 0.3402 0.7139
vn 0.0004 0.6935 0.7205
vn 0.6126 0.3398 0.7136
vn -0.3278 0.0181 -0.9446
vn -0.3278 0.0182 -0.9446
vn -0.9864 -0.0028 0.1644
vn -0.4623 0.0171 -0.8866
vn -0.5586 0.0160 -0.8293
vn -0.5583 -0.0156 0.8295
vn -0.9864 0.0035 -0.1641
vn -0.9864 0.0035 -0.1640
vn 0.2565 -0.0185 0.9664
vn 0.5586 -0.0160 0.8293
vn -0.4620 -0.0168 0.8867
vn 0.9864 -0.0035 0.1641
vn 0.9864 -0.0035 0.1640
vn 0.9864 0.0028 -0.1644
vn 0.4623 -0.0171 0.8866
vn 0.4620 0.0168 -0.8867
vn 0.5583 0.0156 -0.8295
vn 0.3275 0.0179 -0.9447
vn -0.2562 -0.0184 0.9665
vn 0.0003 0.9998 -0.0205
vn 0.0004 0.9998 -0.0204
vn -0.0004 -0.9983 -0.0585
vn -0.8652 0.5006 -0.0298
vn -0.8655 -0.4985 -0.0489
vn 0.8652 -0.4991 -0.0492
vn 0.8655 0.5000 -0.0302
vn 0.8655 0.5000 -0.0301
vn 0.1675 -0.0781 -0.9828
vn 0.1674 -0.0781 -0.9828
vn -0.1843 0.0879 0.9789
vn -0.1842 0.0879 0.9790
vn -0.1678 -0.0780 -0.9827
vn 0.1847 0.0878 0.9789
vn 0.1846 -0.1252 0.9748
vn -0.0001 0.2123 -0.9772
vn 0.4819 -0.2942 0.8254
vn -0.4816 0.2624 0.8362
vn 0.0002 -0.0190 0.9998
vn -0.3279 0.0181 -0.9446
usemtl potmetal
s 1
f 2/1/1 4/2/1 1/3/1
f 5/4/2 7/5/2 8/6/2
f 8/7/3 9/8/3 10/9/3
f 11/10/4 2/11/4 1/12/4
f 8/13/5 13/14/5 5/15/5
f 3/16/6 12/17/6 14/18/6
f 14/18/6 15/19/6 6/20/6
f 13/14/5 16/21/5 5/15/5
f 15/22/4 11/10/4 13/23/7
f 14/18/6 17/24/6 18/25/6
f 4/26/8 14/27/8 16/28/8
f 4/29/5 11/30/5 1/31/5
f 10/32/4 15/22/4 13/23/7
f 6/20/6 9/33/6 7/34/6
f 19/35/9 21/36/9 22/37/9
f 23/38/10 25/39/10 26/40/10
f 25/39/11 28/41/12 26/40/12
f 28/42/13 20/43/6 19/35/13
f 21/36/14 30/44/15 22/37/15
f 29/45/5 23/46/16 30/47/16
f 31/48/17 33/49/17 34/50/17
f 23/51/18 36/52/18 30/53/18
f 37/54/19 39/55/19 40/56/19
f 41/57/20 43/58/21 44/59/20
f 46/60/22 48/61/22 45/62/23
f 26/63/24 35/64/24 23/51/24
f 51/65/25 53/66/26 50/67/26
f 55/68/27 57/69/27 54/70/27
f 45/71/15 59/72/15 46/73/14
f 28/74/28 49/75/28 26/63/28
f 59/76/5 62/77/5 46/78/5
f 41/57/29 64/79/29 63/80/30
f 61/81/10 63/82/10 62/83/10
f 28/74/31 65/84/32 60/85/31
f 63/82/11 50/86/12 41/87/12
f 66/88/33 68/89/34 69/90/33
f 50/91/6 42/92/6 41/93/6
f 51/65/35 71/94/35 52/95/36
f 70/96/37 45/71/37 42/97/37
f 65/98/9 74/99/9 72/100/9
f 53/101/6 65/102/6 72/103/13
f 49/104/12 53/105/12 52/106/12
f 35/107/10 52/106/10 71/108/10
f 75/109/5 35/110/5 71/111/5
f 73/112/15 75/113/15 74/99/15
f 48/114/38 54/115/38 76/116/38
f 47/117/39 55/118/39 54/119/39
f 55/120/40 64/121/40 78/122/40
f 78/122/41 44/123/41 79/124/41
f 79/125/42 43/126/42 80/127/42
f 43/128/43 76/116/43 80/129/43
f 58/130/44 75/131/44 59/132/44
f 50/67/45 72/133/46 70/134/46
f 30/53/47 73/135/47 22/136/47
f 62/137/48 47/138/49 46/60/50
f 80/139/51 82/140/52 79/141/52
f 32/142/53 83/143/54 84/144/53
f 42/145/55 48/61/56 43/58/55
f 59/132/57 71/94/57 61/146/58
f 70/134/59 74/147/59 58/130/59
f 78/148/60 56/149/60 55/68/60
f 63/80/61 77/150/61 62/137/62
f 19/151/63 73/135/63 65/84/63
f 38/152/64 87/153/64 66/154/65
f 37/155/66 34/156/66 88/157/66
f 32/158/67 89/159/67 33/160/67
f 37/155/68 86/161/68 38/162/68
f 66/163/69 89/159/69 67/164/69
f 33/165/1 88/166/1 34/167/1
f 89/168/1 86/169/1 33/165/1
f 21/170/70 91/171/70 29/172/70
f 24/173/71 91/171/71 92/174/71
f 25/175/72 92/174/72 93/176/72
f 25/175/73 94/177/73 27/178/74
f 27/178/75 95/179/75 20/180/75
f 20/180/76 90/181/76 21/170/76
f 90/181/3 94/177/3 92/174/3
f 16/182/1 18/183/1 96/184/1
f 6/185/3 97/186/3 17/187/3
f 16/21/5 97/188/5 5/15/5
f 97/189/2 18/190/2 17/191/2
f 98/192/13 100/193/6 101/194/13
f 102/195/6 104/196/13 105/197/6
f 107/198/6 109/199/6 106/200/6
f 110/201/6 100/193/6 99/202/6
f 103/203/6 113/204/6 104/196/13
f 107/198/6 115/205/6 108/206/6
f 116/207/6 118/208/6 119/209/6
f 98/192/13 113/204/6 112/210/6
f 120/211/6 115/205/6 114/212/6
f 117/213/6 109/199/6 118/208/6
f 122/214/16 124/215/5 125/216/5
f 126/217/5 128/218/16 129/219/16
f 131/220/5 133/221/5 130/222/5
f 124/215/5 135/223/5 125/216/5
f 129/219/16 136/224/5 137/225/5
f 133/221/5 138/226/5 139/227/5
f 140/228/5 142/229/5 143/230/5
f 136/224/5 122/214/16 137/225/5
f 138/226/5 145/231/5 139/227/5
f 143/230/5 131/220/5 130/222/5
f 126/232/1 103/233/1 102/234/1
f 141/235/77 111/236/77 119/237/78
f 138/238/79 108/239/79 115/240/79
f 103/233/80 137/241/80 112/242/80
f 109/243/81 142/244/81 118/245/81
f 121/246/82 138/247/82 115/248/82
f 112/249/83 122/250/83 98/251/83
f 132/252/83 109/253/83 108/239/84
f 105/254/85 144/255/85 121/246/85
f 98/251/79 125/256/79 99/257/79
f 113/258/86 128/259/86 104/260/86
f 125/261/87 110/262/87 99/263/87
f 123/264/88 113/265/88 101/266/89
f 140/267/3 117/268/3 116/269/3
f 107/270/90 139/271/90 114/272/90
f 100/273/90 123/264/90 101/266/90
f 117/268/91 130/274/91 106/275/91
f 114/276/92 145/277/92 120/278/92
f 111/236/93 124/279/93 100/280/93
f 130/281/88 107/270/88 106/282/88
f 110/262/3 140/267/3 116/269/3
f 142/244/94 119/237/94 118/245/94
f 134/283/5 140/228/5 135/223/5
f 116/207/6 111/284/6 110/201/6
f 104/260/95 127/285/95 105/254/95
f 145/277/1 102/234/1 120/278/1
f 144/286/5 126/217/5 145/231/5
f 102/195/6 121/287/6 120/211/6
f 39/288/96 82/289/97 81/290/96
f 83/291/98 56/292/98 84/293/98
f 68/294/99 82/295/99 69/296/99
f 68/294/100 56/297/100 85/298/100
f 40/299/101 57/300/101 83/301/101
f 39/302/102 146/303/102 40/299/103
f 37/54/104 83/143/105 31/304/105
f 78/148/106 82/140/107 85/305/106
f 32/142/108 68/89/108 67/306/108
f 76/307/109 81/308/109 80/139/109
f 76/307/110 57/69/110 146/309/110
f 38/310/111 69/90/111 39/55/111
f 2/1/1 3/311/1 4/2/1
f 5/4/2 6/312/2 7/5/2
f 8/7/3 7/313/3 9/8/3
f 11/10/4 12/314/7 2/11/4
f 8/13/5 10/315/5 13/14/5
f 3/16/6 2/316/13 12/17/6
f 14/18/6 12/17/6 15/19/6
f 13/14/5 11/30/5 16/21/5
f 15/22/4 12/314/7 11/10/4
f 14/18/6 6/20/6 17/24/6
f 4/26/8 3/317/8 14/27/8
f 4/29/5 16/21/5 11/30/5
f 10/32/4 9/318/4 15/22/4
f 6/20/6 15/19/6 9/33/6
f 19/35/9 20/319/9 21/36/9
f 23/38/10 24/320/10 25/39/10
f 25/39/11 27/321/11 28/41/12
f 28/42/13 27/322/6 20/43/6
f 21/36/14 29/323/14 30/44/15
f 29/45/5 24/324/5 23/46/16
f 31/48/17 32/325/17 33/49/17
f 23/51/18 35/64/18 36/52/18
f 37/54/19 38/310/19 39/55/19
f 41/57/20 42/145/21 43/58/21
f 46/60/22 47/138/112 48/61/22
f 26/63/24 49/75/24 35/64/24
f 51/65/25 52/95/25 53/66/26
f 55/68/27 56/149/27 57/69/27
f 45/71/15 58/326/15 59/72/15
f 28/74/28 60/85/28 49/75/28
f 59/76/5 61/327/5 62/77/5
f 41/57/29 44/59/113 64/79/29
f 61/81/10 51/328/10 63/82/10
f 28/74/31 19/151/32 65/84/32
f 63/82/11 51/328/11 50/86/12
f 66/88/33 67/306/34 68/89/34
f 50/91/6 70/329/6 42/92/6
f 51/65/35 61/146/35 71/94/35
f 70/96/37 58/326/37 45/71/37
f 65/98/9 73/112/9 74/99/9
f 53/101/6 60/330/6 65/102/6
f 49/104/12 60/331/12 53/105/12
f 35/107/10 49/104/10 52/106/10
f 75/109/5 36/332/5 35/110/5
f 73/112/15 36/333/15 75/113/15
f 48/114/38 47/334/38 54/115/38
f 47/117/39 77/335/39 55/118/39
f 55/120/40 77/336/40 64/121/40
f 78/122/41 64/121/41 44/123/41
f 79/125/42 44/337/42 43/126/42
f 43/128/43 48/114/43 76/116/43
f 58/130/44 74/147/44 75/131/44
f 50/67/45 53/66/45 72/133/46
f 30/53/47 36/52/47 73/135/47
f 62/137/48 77/150/48 47/138/49
f 80/139/51 81/308/51 82/140/52
f 32/142/53 31/304/54 83/143/54
f 42/145/55 45/62/56 48/61/56
f 59/132/57 75/131/57 71/94/57
f 70/134/59 72/133/59 74/147/59
f 78/148/60 85/305/60 56/149/60
f 63/80/61 64/79/61 77/150/61
f 19/151/63 22/136/63 73/135/63
f 38/152/64 86/338/64 87/153/64
f 37/155/66 31/339/66 34/156/66
f 32/158/67 67/164/67 89/159/67
f 37/155/68 88/157/68 86/161/68
f 66/163/69 87/340/69 89/159/69
f 33/165/1 86/169/1 88/166/1
f 89/168/1 87/341/1 86/169/1
f 21/170/70 90/181/70 91/171/70
f 24/173/71 29/172/71 91/171/71
f 25/175/72 24/173/72 92/174/72
f 25/175/73 93/176/73 94/177/73
f 27/178/75 94/177/75 95/179/75
f 20/180/76 95/179/76 90/181/76
f 92/174/3 91/171/3 90/181/3
f 90/181/3 95/179/114 94/177/3
f 94/177/3 93/176/3 92/174/3
f 16/182/1 14/342/1 18/183/1
f 6/185/3 5/343/3 97/186/3
f 16/21/5 96/344/5 97/188/5
f 97/189/2 96/345/8 18/190/2
f 98/192/13 99/202/6 100/193/6
f 102/195/6 103/203/6 104/196/13
f 107/198/6 108/206/6 109/199/6
f 110/201/6 111/284/6 100/193/6
f 103/203/6 112/210/6 113/204/6
f 107/198/6 114/212/6 115/205/6
f 116/207/6 117/213/6 118/208/6
f 98/192/13 101/194/13 113/204/6
f 120/211/6 121/287/6 115/205/6
f 117/213/6 106/200/6 109/199/6
f 122/214/16 123/346/16 124/215/5
f 126/217/5 127/347/5 128/218/16
f 131/220/5 132/348/5 133/221/5
f 124/215/5 134/283/5 135/223/5
f 129/219/16 128/218/16 136/224/5
f 133/221/5 132/348/5 138/226/5
f 140/228/5 141/349/5 142/229/5
f 136/224/5 123/346/16 122/214/16
f 138/226/5 144/286/5 145/231/5
f 143/230/5 142/229/5 131/220/5
f 126/232/1 129/350/1 103/233/1
f 141/235/77 134/351/115 111/236/77
f 138/238/79 132/252/79 108/239/79
f 103/233/80 129/350/80 137/241/80
f 109/243/81 131/352/81 142/244/81
f 121/246/82 144/255/82 138/247/82
f 112/249/83 137/353/83 122/250/83
f 132/252/83 131/354/83 109/253/83
f 105/254/85 127/285/85 144/255/85
f 98/251/79 122/250/79 125/256/79
f 113/258/86 136/355/86 128/259/86
f 125/261/87 135/356/87 110/262/87
f 123/264/88 136/357/88 113/265/88
f 140/267/3 143/358/3 117/268/3
f 107/270/90 133/359/90 139/271/90
f 100/273/90 124/360/90 123/264/90
f 117/268/91 143/358/91 130/274/91
f 114/276/92 139/361/92 145/277/92
f 111/236/93 134/351/93 124/279/93
f 130/281/88 133/359/89 107/270/88
f 110/262/3 135/356/3 140/267/3
f 142/244/94 141/235/94 119/237/94
f 134/283/5 141/349/5 140/228/5
f 116/207/6 119/209/6 111/284/6
f 104/260/95 128/259/95 127/285/95
f 145/277/1 126/232/1 102/234/1
f 144/286/5 127/347/5 126/217/5
f 102/195/6 105/197/6 121/287/6
f 39/288/96 69/362/97 82/289/97
f 83/291/98 57/363/98 56/292/98
f 68/294/99 85/298/99 82/295/99
f 68/294/100 84/364/100 56/297/100
f 40/299/101 146/303/101 57/300/101
f 39/302/102 81/365/102 146/303/102
f 37/54/104 40/56/104 83/143/105
f 78/148/106 79/141/107 82/140/107
f 32/142/108 84/144/108 68/89/108
f 76/307/109 146/309/109 81/308/109
f 76/307/110 54/70/110 57/69/110
f 38/310/111 66/88/111 69/90/111
