# Blender v2.81 (sub 16) OBJ File: 'scene.blend'
# www.blender.org
mtllib key.mtl
o Key1_Cube.008
v 0.191501 0.017641 1.844296
v 0.191518 0.064315 1.845184
v 0.270731 0.064290 1.845074
v 0.270715 0.017615 1.844185
v 0.270922 0.014759 1.994268
v 0.270939 0.061433 1.995157
v 0.270977 0.060890 2.023708
v 0.270961 0.014215 2.022819
v 0.191764 0.060916 2.023818
v 0.191747 0.014241 2.022930
v 0.191541 0.017098 1.872847
v 0.191557 0.063772 1.873735
v 0.191708 0.014784 1.994378
v 0.270771 0.063746 1.873626
v 0.191724 0.061459 1.995266
v 0.270755 0.017072 1.872737
v 0.321161 0.061417 1.995087
v 0.320992 0.063730 1.873556
v 0.194736 0.079452 1.602302
v 0.195380 0.070553 2.069850
v 0.214915 0.036698 2.069179
v 0.214271 0.045598 1.601631
v 0.155620 0.011767 1.601068
v 0.156265 0.002869 2.068616
v 0.136731 0.036723 2.069288
v 0.136086 0.045623 1.601740
v 0.156289 0.070566 2.069905
v 0.155643 0.079465 1.602357
v 0.195357 0.002856 2.068562
v 0.194712 0.011755 1.601014
v 0.193548 0.015509 1.496665
v 0.156497 0.015521 1.496717
v 0.156563 0.016608 1.451277
v 0.193358 0.016596 1.451226
v 0.150388 0.002834 1.595257
v 0.199922 0.002818 1.595188
v 0.212086 0.047585 1.497250
v 0.193571 0.079673 1.497886
v 0.198801 0.088684 1.499837
v 0.222537 0.047548 1.499021
v 0.155577 0.080392 1.553672
v 0.194668 0.080378 1.553618
v 0.199885 0.089535 1.547727
v 0.150350 0.089551 1.547796
v 0.214203 0.046524 1.552947
v 0.194645 0.012681 1.552329
v 0.199855 0.003752 1.546095
v 0.224637 0.046635 1.546876
v 0.125634 0.045734 1.596107
v 0.155594 0.080149 1.566446
v 0.136036 0.046306 1.565829
v 0.125599 0.046221 1.570463
v 0.150382 0.089104 1.571245
v 0.194366 0.013814 1.513358
v 0.155725 0.013826 1.513412
v 0.150989 0.005671 1.511477
v 0.199091 0.005656 1.511410
v 0.214221 0.046281 1.565720
v 0.194662 0.012438 1.565103
v 0.150417 0.088617 1.596889
v 0.155570 0.012451 1.565158
v 0.155553 0.012694 1.552384
v 0.136019 0.046549 1.553055
v 0.125567 0.046668 1.547014
v 0.199953 0.088601 1.596820
v 0.156519 0.079684 1.497938
v 0.137982 0.047608 1.497353
v 0.127536 0.047578 1.499152
v 0.151300 0.088700 1.499903
v 0.194687 0.080136 1.566392
v 0.150352 0.003323 1.569612
v 0.199918 0.089089 1.571177
v 0.224705 0.045701 1.595969
v 0.224670 0.046190 1.570326
v 0.199887 0.003306 1.569544
v 0.213698 0.047266 1.513969
v 0.150320 0.003769 1.546163
v 0.136415 0.047291 1.514076
v 0.155748 0.080743 1.514685
v 0.194389 0.080731 1.514632
v 0.199120 0.088954 1.512996
v 0.151019 0.088970 1.513063
v 0.198772 0.006426 1.498271
v 0.151272 0.006441 1.498337
v 0.126953 0.047328 1.512303
v 0.193380 0.080315 1.452439
v 0.156585 0.080328 1.452490
v 0.211766 0.048449 1.451807
v 0.138176 0.048474 1.451909
v 0.199208 0.036444 2.082817
v 0.187518 0.016215 2.082448
v 0.164151 0.016223 2.082480
v 0.152475 0.036459 2.082881
v 0.164165 0.056688 2.083251
v 0.187532 0.056681 2.083218
v 0.320976 0.017055 1.872667
v 0.321144 0.014743 1.994198
v 0.033797 0.086128 1.339118
v 0.046759 0.084656 1.416281
v 0.083280 0.085059 1.394415
v 0.073982 0.086116 1.339063
v 0.175800 0.088398 1.217254
v 0.131866 0.088413 1.217315
v 0.130499 0.087759 1.251707
v 0.175864 0.087515 1.263669
v 0.305390 0.084572 1.415923
v 0.318139 0.086036 1.338724
v 0.277953 0.086050 1.338779
v 0.268808 0.084999 1.394157
v 0.132202 0.083781 1.460649
v 0.130740 0.084436 1.426261
v 0.046546 0.087593 1.261919
v 0.083127 0.087166 1.283685
v 0.305177 0.087510 1.261561
v 0.268656 0.087107 1.283427
v 0.176136 0.083767 1.460588
v 0.220069 0.083752 1.460527
v 0.221437 0.084407 1.426136
v 0.176067 0.084721 1.410473
v 0.219733 0.088385 1.217194
v 0.221196 0.087730 1.251581
v 0.033774 0.020760 1.337874
v 0.073959 0.020748 1.337819
v 0.083257 0.019691 1.393171
v 0.046736 0.019288 1.415037
v 0.175777 0.023031 1.216010
v 0.175841 0.022148 1.262424
v 0.130476 0.022391 1.250462
v 0.131844 0.023045 1.216071
v 0.305367 0.019204 1.414678
v 0.268785 0.019631 1.392913
v 0.277931 0.020682 1.337536
v 0.318116 0.020669 1.337480
v 0.130718 0.019068 1.425017
v 0.132180 0.018413 1.459405
v 0.083105 0.021798 1.282441
v 0.046523 0.022225 1.260675
v 0.268633 0.021739 1.282183
v 0.305155 0.022142 1.260317
v 0.176113 0.018399 1.459344
v 0.176044 0.019353 1.409229
v 0.221414 0.019039 1.424891
v 0.220046 0.018385 1.459283
v 0.221173 0.022362 1.250337
v 0.219710 0.023017 1.215950
v 0.223156 0.047297 1.512170
vt 0.391153 0.428333
vt 0.373236 0.458658
vt 0.373236 0.428333
vt 0.374154 0.368090
vt 0.363198 0.385374
vt 0.363198 0.368021
vt 0.613442 0.392896
vt 0.595525 0.362571
vt 0.613442 0.362571
vt 0.613442 0.403827
vt 0.595525 0.392896
vt 0.613442 0.392896
vt 0.569581 0.529682
vt 0.539178 0.518751
vt 0.569581 0.518752
vt 0.608132 0.461292
vt 0.638535 0.472223
vt 0.608132 0.472223
vt 0.638535 0.518751
vt 0.608132 0.518752
vt 0.569581 0.472223
vt 0.595525 0.450360
vt 0.613442 0.450360
vt 0.588856 0.518752
vt 0.588856 0.472223
vt 0.374154 0.385513
vt 0.363198 0.402797
vt 0.363198 0.385444
vt 0.569581 0.461292
vt 0.539178 0.472223
vt 0.539178 0.461292
vt 0.613442 0.461292
vt 0.638535 0.529683
vt 0.608132 0.529683
vt 0.400511 0.638535
vt 0.411335 0.459308
vt 0.411335 0.638270
vt 0.451733 0.459475
vt 0.438739 0.638535
vt 0.438739 0.459518
vt 0.425745 0.459475
vt 0.385507 0.638535
vt 0.400511 0.459534
vt 0.425745 0.638376
vt 0.370503 0.459534
vt 0.385507 0.638535
vt 0.370503 0.638535
vt 0.488990 0.380427
vt 0.503162 0.397827
vt 0.489039 0.397827
vt 0.439595 0.454660
vt 0.423130 0.449177
vt 0.426601 0.447177
vt 0.407341 0.417829
vt 0.423130 0.412737
vt 0.407341 0.421829
vt 0.459532 0.447177
vt 0.472525 0.458658
vt 0.456060 0.449176
vt 0.485519 0.432212
vt 0.488990 0.449176
vt 0.485519 0.447177
vt 0.452589 0.447177
vt 0.439595 0.458658
vt 0.535706 0.404226
vt 0.539178 0.421190
vt 0.535707 0.419192
vt 0.419986 0.432847
vt 0.423130 0.449451
vt 0.419986 0.447640
vt 0.590430 0.415919
vt 0.595133 0.430322
vt 0.590231 0.430291
vt 0.452589 0.432212
vt 0.456060 0.449176
vt 0.370503 0.547341
vt 0.365600 0.562306
vt 0.365600 0.547340
vt 0.456060 0.430213
vt 0.459532 0.432212
vt 0.370460 0.580720
vt 0.365600 0.593681
vt 0.365556 0.580720
vt 0.439595 0.420731
vt 0.456060 0.430213
vt 0.370460 0.606641
vt 0.365556 0.606641
vt 0.419657 0.396553
vt 0.407341 0.385461
vt 0.423130 0.394553
vt 0.373236 0.424729
vt 0.368333 0.439694
vt 0.368333 0.424729
vt 0.522713 0.392746
vt 0.539178 0.402227
vt 0.595133 0.405152
vt 0.590231 0.405121
vt 0.463646 0.464943
vt 0.454056 0.478563
vt 0.453805 0.464881
vt 0.373236 0.458658
vt 0.363393 0.439695
vt 0.373236 0.439695
vt 0.463897 0.513260
vt 0.453998 0.529682
vt 0.454053 0.513260
vt 0.463843 0.496837
vt 0.453998 0.496837
vt 0.493368 0.361464
vt 0.503211 0.380427
vt 0.493368 0.380427
vt 0.463897 0.478625
vt 0.453805 0.496775
vt 0.438685 0.402520
vt 0.425745 0.417643
vt 0.425941 0.403436
vt 0.361464 0.421829
vt 0.374154 0.404951
vt 0.374154 0.419744
vt 0.488990 0.401439
vt 0.501695 0.414250
vt 0.489033 0.414250
vt 0.501641 0.430672
vt 0.488990 0.427061
vt 0.405213 0.383375
vt 0.392522 0.366497
vt 0.405212 0.368583
vt 0.438434 0.388837
vt 0.425745 0.392763
vt 0.509719 0.419192
vt 0.506248 0.402227
vt 0.509719 0.404226
vt 0.522713 0.430672
vt 0.522712 0.426674
vt 0.423130 0.430213
vt 0.426601 0.432212
vt 0.472526 0.424729
vt 0.488990 0.430213
vt 0.394298 0.447640
vt 0.391154 0.431037
vt 0.394298 0.432847
vt 0.395026 0.396553
vt 0.391553 0.412737
vt 0.391553 0.394553
vt 0.472525 0.454660
vt 0.522713 0.396744
vt 0.506248 0.421191
vt 0.407142 0.425451
vt 0.423130 0.431036
vt 0.472525 0.420731
vt 0.439595 0.424729
vt 0.438685 0.371438
vt 0.424514 0.388837
vt 0.424464 0.371438
vt 0.521692 0.379124
vt 0.504076 0.392581
vt 0.504251 0.379053
vt 0.539137 0.368178
vt 0.521733 0.380462
vt 0.521692 0.368263
vt 0.504055 0.368890
vt 0.521495 0.368890
vt 0.539137 0.392746
vt 0.539178 0.380462
vt 0.564723 0.395011
vt 0.552492 0.373882
vt 0.564723 0.380925
vt 0.552492 0.402054
vt 0.540262 0.380925
vt 0.564723 0.379741
vt 0.569950 0.391696
vt 0.564723 0.394707
vt 0.577717 0.402189
vt 0.577717 0.396169
vt 0.590710 0.394706
vt 0.585483 0.391696
vt 0.585483 0.382751
vt 0.590710 0.379741
vt 0.577717 0.378278
vt 0.577717 0.372258
vt 0.569950 0.382751
vt 0.405213 0.366235
vt 0.423130 0.385461
vt 0.405213 0.385461
vt 0.638535 0.390267
vt 0.620618 0.371041
vt 0.638535 0.371041
vt 0.588856 0.518751
vt 0.391553 0.375202
vt 0.374154 0.421829
vt 0.374154 0.375311
vt 0.591836 0.529683
vt 0.613087 0.548597
vt 0.591836 0.545067
vt 0.545134 0.584108
vt 0.558335 0.566748
vt 0.562950 0.584109
vt 0.591834 0.638535
vt 0.613085 0.619622
vt 0.621459 0.633615
vt 0.638535 0.567291
vt 0.621461 0.534604
vt 0.545135 0.567290
vt 0.570584 0.548596
vt 0.570583 0.619621
vt 0.591834 0.623151
vt 0.638535 0.584110
vt 0.625335 0.601470
vt 0.619299 0.584110
vt 0.562211 0.534604
vt 0.545134 0.600927
vt 0.562209 0.633614
vt 0.638535 0.600928
vt 0.498434 0.529683
vt 0.477183 0.548597
vt 0.468809 0.534604
vt 0.545134 0.584110
vt 0.531934 0.566749
vt 0.545134 0.567291
vt 0.477182 0.619621
vt 0.498433 0.638535
vt 0.468808 0.633614
vt 0.451733 0.567290
vt 0.519685 0.548597
vt 0.528059 0.534604
vt 0.519685 0.619622
vt 0.528058 0.633615
vt 0.451733 0.584109
vt 0.464933 0.601469
vt 0.451733 0.600927
vt 0.545134 0.600928
vt 0.539178 0.480178
vt 0.514084 0.496996
vt 0.514084 0.480178
vt 0.463897 0.494170
vt 0.488990 0.476810
vt 0.488990 0.494170
vt 0.438685 0.420731
vt 0.463778 0.399553
vt 0.463778 0.420731
vt 0.539177 0.529683
vt 0.514084 0.529682
vt 0.488990 0.529683
vt 0.463897 0.511531
vt 0.488990 0.511531
vt 0.638535 0.408419
vt 0.613442 0.390267
vt 0.638535 0.390267
vt 0.564723 0.402189
vt 0.589816 0.431769
vt 0.564723 0.431769
vt 0.438685 0.399553
vt 0.463778 0.378334
vt 0.638535 0.425780
vt 0.613442 0.408420
vt 0.589816 0.461292
vt 0.564723 0.461292
vt 0.638535 0.461292
vt 0.613442 0.443140
vt 0.638535 0.443140
vt 0.488990 0.529683
vt 0.514084 0.496996
vt 0.514084 0.529683
vt 0.488990 0.399474
vt 0.463778 0.420731
vt 0.464624 0.399627
vt 0.488991 0.480177
vt 0.514084 0.463359
vt 0.514084 0.480177
vt 0.564723 0.431719
vt 0.539178 0.402208
vt 0.563544 0.402054
vt 0.463778 0.378348
vt 0.488990 0.430672
vt 0.514084 0.430672
vt 0.514084 0.430673
vt 0.539178 0.463359
vt 0.514084 0.463359
vt 0.463897 0.458658
vt 0.488990 0.458658
vt 0.539178 0.461292
vt 0.563544 0.461138
vt 0.464934 0.566749
vt 0.625336 0.566749
vt 0.613442 0.425780
vt 0.531934 0.601470
vt 0.558334 0.601469
vt 0.370503 0.562421
vt 0.365453 0.580720
vt 0.365453 0.562306
vt 0.613442 0.371968
vt 0.618492 0.390267
vt 0.613442 0.390152
vt 0.365454 0.622588
vt 0.370451 0.638535
vt 0.365402 0.638336
vt 0.370451 0.606641
vt 0.370503 0.622588
vt 0.590472 0.443631
vt 0.595280 0.461292
vt 0.590231 0.461095
vt 0.590231 0.430511
vt 0.595524 0.443608
vt 0.395026 0.410737
vt 0.407142 0.421829
vt 0.407341 0.389461
vt 0.407142 0.455036
vt 0.391154 0.449451
vt 0.407142 0.458658
vt 0.419657 0.410737
vt 0.391154 0.458658
vt 0.374154 0.385444
vt 0.595525 0.392895
vt 0.595524 0.403827
vt 0.539178 0.529683
vt 0.638535 0.461292
vt 0.374154 0.402866
vt 0.595524 0.461292
vt 0.400511 0.459574
vt 0.451733 0.638493
vt 0.425745 0.638493
vt 0.385507 0.459533
vt 0.425745 0.459415
vt 0.385507 0.459534
vt 0.503211 0.380427
vt 0.595331 0.415949
vt 0.370503 0.562306
vt 0.370503 0.593681
vt 0.373236 0.439695
vt 0.363393 0.458658
vt 0.463843 0.529683
vt 0.503211 0.361464
vt 0.463646 0.496837
vt 0.438435 0.420731
vt 0.361464 0.402866
vt 0.501641 0.397827
vt 0.392522 0.385461
vt 0.438636 0.388837
vt 0.521517 0.392746
vt 0.521692 0.392661
vt 0.540262 0.395011
vt 0.423130 0.366235
vt 0.620618 0.390267
vt 0.588856 0.472223
vt 0.391553 0.421720
vt 0.498434 0.545067
vt 0.527319 0.584109
vt 0.498433 0.623152
vt 0.470969 0.584109
vt 0.539178 0.496996
vt 0.463897 0.476810
vt 0.463897 0.529683
vt 0.589816 0.402189
vt 0.438685 0.378334
vt 0.613442 0.461292
vt 0.488991 0.496996
vt 0.488145 0.420578
vt 0.488990 0.463359
vt 0.540357 0.431872
vt 0.488145 0.378194
vt 0.539177 0.430672
vt 0.370503 0.580606
vt 0.618492 0.371853
vt 0.365402 0.606840
vt 0.595280 0.430322
vn -0.0014 0.0190 -0.9998
vn 1.0000 -0.0003 -0.0014
vn 0.0014 -0.0190 0.9998
vn -1.0000 0.0003 0.0014
vn -0.0003 -0.9998 -0.0190
vn 0.0004 0.9998 0.0190
vn 0.0003 0.9998 0.0190
vn -0.0004 -0.9998 -0.0190
vn 0.8662 0.4996 0.0083
vn -0.8662 -0.4996 -0.0083
vn -0.8659 0.5002 0.0107
vn -0.8658 0.5002 0.0107
vn 0.8659 -0.5002 -0.0107
vn 0.8658 -0.5002 -0.0107
vn -0.0004 -0.9997 -0.0239
vn 0.0010 -0.5457 0.8380
vn 0.1663 0.1154 -0.9793
vn 0.1664 0.1154 -0.9793
vn 0.0014 0.5405 0.8414
vn 0.0013 0.5405 0.8413
vn 0.4829 -0.2941 0.8248
vn 0.4830 -0.2941 0.8248
vn -0.4576 -0.2808 0.8436
vn -0.4577 -0.2808 0.8436
vn -0.3951 0.2445 -0.8855
vn -0.3952 0.2445 -0.8855
vn -0.3952 0.2445 -0.8854
vn 0.0013 -0.2316 0.9728
vn 0.0013 -0.2315 0.9728
vn -0.4574 0.2488 0.8537
vn -0.4806 0.2625 0.8367
vn 0.0014 0.5134 0.8581
vn 0.0014 0.5135 0.8581
vn -0.1690 0.1155 -0.9788
vn -0.1689 0.1155 -0.9788
vn -0.3953 -0.2103 -0.8942
vn -0.3953 -0.2104 -0.8942
vn 0.8320 -0.4756 -0.2857
vn -0.0007 -0.9559 -0.2937
vn -0.8331 -0.4751 -0.2834
vn -0.8327 0.4861 -0.2651
vn -0.0000 0.9664 -0.2571
vn 0.8323 0.4855 -0.2674
vn 0.3927 -0.2106 -0.8952
vn -0.0011 0.4719 -0.8817
vn -0.0011 0.4718 -0.8817
vn 0.4598 -0.2811 0.8424
vn 0.4598 -0.2811 0.8423
vn 0.0009 -0.5722 0.8201
vn 0.0010 -0.5721 0.8202
vn 0.0014 0.1943 0.9809
vn -0.0014 -0.1748 -0.9846
vn 0.4831 0.2622 0.8354
vn 0.4832 0.2622 0.8354
vn -0.0014 -0.4380 -0.8990
vn -0.0014 -0.4379 -0.8990
vn 0.3929 0.2443 -0.8865
vn -0.1832 -0.1250 0.9751
vn -0.1831 -0.1250 0.9751
vn -0.4808 -0.2938 0.8261
vn -0.4809 -0.2938 0.8261
vn 0.4600 0.2485 0.8524
vn 0.0003 0.9999 0.0141
vn 0.0003 0.9999 0.0142
vn 0.8658 -0.5001 -0.0156
vn -0.8662 -0.4995 -0.0132
vn 0.8662 0.4997 0.0034
vn -0.8658 0.5003 0.0058
vn 0.6132 -0.3671 0.6994
vn 0.0007 -0.7204 0.6935
vn -0.6115 -0.3667 0.7011
vn -0.6115 -0.3668 0.7011
vn -0.6113 0.3402 0.7146
vn 0.0012 0.6935 0.7204
vn 0.0013 0.6935 0.7204
vn 0.6135 0.3398 0.7129
vn 0.6135 0.3398 0.7128
vn -0.3290 0.0181 -0.9442
vn -0.9862 -0.0028 0.1656
vn -0.4634 0.0170 -0.8860
vn -0.5596 0.0160 -0.8286
vn -0.5573 -0.0156 0.8302
vn -0.9866 0.0034 -0.1629
vn 0.2577 -0.0185 0.9661
vn 0.5596 -0.0160 0.8286
vn -0.4609 -0.0167 0.8873
vn 0.9866 -0.0034 0.1629
vn 0.9862 0.0028 -0.1656
vn 0.4634 -0.0170 0.8860
vn 0.4609 0.0167 -0.8873
vn 0.5573 0.0156 -0.8302
vn 0.3264 0.0179 -0.9451
vn -0.2550 -0.0183 0.9668
vn 0.0003 0.9998 -0.0205
vn 0.0003 0.9998 -0.0206
vn -0.0004 -0.9983 -0.0585
vn -0.8652 0.5006 -0.0288
vn -0.8652 0.5005 -0.0288
vn -0.8656 -0.4985 -0.0479
vn -0.8656 -0.4985 -0.0478
vn 0.8651 -0.4991 -0.0502
vn 0.8651 -0.4990 -0.0502
vn 0.8655 0.5000 -0.0312
vn 0.1663 -0.0782 -0.9830
vn 0.1662 -0.0782 -0.9830
vn 0.1662 -0.0781 -0.9830
vn -0.1831 0.0880 0.9791
vn -0.1830 0.0879 0.9792
vn -0.1690 -0.0780 -0.9825
vn 0.1858 0.0878 0.9786
vn 0.1857 -0.1251 0.9746
vn -0.0013 0.2123 -0.9772
vn -0.0013 0.2122 -0.9772
vn 0.0010 -0.5457 0.8379
vn 0.4832 0.2622 0.8353
vn 0.0004 0.9999 0.0141
vn 0.0012 0.6935 0.7205
usemtl potmetal
s 1
f 2/1/1 4/2/1 1/3/1
f 5/4/2 7/5/2 8/6/2
f 8/7/3 9/8/3 10/9/3
f 11/10/4 2/11/4 1/12/4
f 8/13/5 13/14/5 5/15/5
f 3/16/6 12/17/7 14/18/6
f 14/18/6 15/19/7 6/20/7
f 13/14/5 16/21/8 5/15/5
f 15/22/4 11/10/4 13/23/4
f 14/18/6 17/24/6 18/25/7
f 4/26/2 14/27/2 16/28/2
f 4/29/8 11/30/8 1/31/8
f 10/32/4 15/22/4 13/23/4
f 6/20/7 9/33/7 7/34/6
f 19/35/9 21/36/9 22/37/9
f 23/38/10 25/39/10 26/40/10
f 25/39/11 28/41/12 26/40/12
f 28/42/7 20/43/6 19/35/7
f 21/36/13 30/44/14 22/37/14
f 29/45/8 23/46/5 30/47/5
f 31/48/15 33/49/15 34/50/15
f 23/51/16 36/52/16 30/53/16
f 37/54/17 39/55/18 40/56/17
f 41/57/19 43/58/20 44/59/19
f 46/60/21 48/61/22 45/62/22
f 26/63/23 35/64/24 23/51/24
f 51/65/25 53/66/26 50/67/27
f 55/68/28 57/69/29 54/70/29
f 45/71/14 59/72/14 46/73/13
f 28/74/30 49/75/30 26/63/30
f 59/76/8 62/77/8 46/78/8
f 41/57/31 64/79/31 63/80/31
f 61/81/10 63/82/10 62/83/10
f 28/74/32 65/84/33 60/85/32
f 63/82/11 50/86/11 41/87/11
f 66/88/34 68/89/35 69/90/34
f 50/91/6 42/92/6 41/93/6
f 51/65/36 71/94/37 52/95/36
f 70/96/9 45/71/9 42/97/9
f 65/98/9 74/99/9 72/100/9
f 53/101/6 65/102/7 72/103/7
f 49/104/11 53/105/11 52/106/11
f 35/107/10 52/106/10 71/108/10
f 75/109/8 35/110/8 71/111/8
f 73/112/13 75/113/13 74/99/14
f 48/114/38 54/115/38 76/116/38
f 47/117/39 55/118/39 54/119/39
f 55/120/40 64/121/40 78/122/40
f 78/122/41 44/123/41 79/124/41
f 79/125/42 43/126/42 80/127/42
f 43/128/43 76/116/43 80/129/43
f 58/130/44 75/131/44 59/132/44
f 50/67/45 72/133/46 70/134/46
f 30/53/47 73/135/47 22/136/48
f 62/137/49 47/138/50 46/60/50
f 80/139/51 82/140/51 79/141/51
f 32/142/52 83/143/52 84/144/52
f 42/145/53 48/61/54 43/58/53
f 59/132/55 71/94/56 61/146/56
f 70/134/57 74/147/57 58/130/57
f 78/148/58 56/149/59 55/68/59
f 63/80/60 77/150/60 62/137/61
f 19/151/62 73/135/62 65/84/62
f 38/152/63 87/153/63 66/154/64
f 37/155/65 34/156/65 88/157/65
f 32/158/66 89/159/66 33/160/66
f 37/155/67 86/161/67 38/162/67
f 66/163/68 89/159/68 67/164/68
f 33/165/1 88/166/1 34/167/1
f 89/168/1 86/169/1 33/165/1
f 21/170/69 91/171/69 29/172/69
f 24/173/70 91/171/70 92/174/70
f 25/175/71 92/174/71 93/176/72
f 25/175/73 94/177/73 27/178/73
f 27/178/74 95/179/74 20/180/75
f 20/180/76 90/181/76 21/170/77
f 90/181/3 94/177/3 92/174/3
f 16/182/1 18/183/1 96/184/1
f 6/185/3 97/186/3 17/187/3
f 16/21/8 97/188/5 5/15/5
f 97/189/2 18/190/2 17/191/2
f 98/192/7 100/193/6 101/194/7
f 102/195/7 104/196/7 105/197/7
f 107/198/6 109/199/6 106/200/7
f 110/201/7 100/193/6 99/202/6
f 103/203/7 113/204/7 104/196/7
f 107/198/6 115/205/6 108/206/6
f 116/207/6 118/208/6 119/209/7
f 98/192/7 113/204/7 112/210/7
f 120/211/7 115/205/6 114/212/6
f 117/213/6 109/199/6 118/208/6
f 122/214/5 124/215/8 125/216/8
f 126/217/5 128/218/5 129/219/5
f 131/220/8 133/221/8 130/222/5
f 124/215/8 135/223/5 125/216/8
f 129/219/5 136/224/5 137/225/5
f 133/221/8 138/226/8 139/227/8
f 140/228/8 142/229/8 143/230/8
f 136/224/5 122/214/5 137/225/5
f 138/226/8 145/231/5 139/227/8
f 143/230/8 131/220/8 130/222/5
f 126/232/1 103/233/1 102/234/1
f 141/235/78 111/236/78 119/237/78
f 138/238/79 108/239/79 115/240/79
f 103/233/80 137/241/80 112/242/80
f 109/243/81 142/244/81 118/245/81
f 121/246/82 138/247/82 115/248/82
f 112/249/83 122/250/83 98/251/83
f 132/252/83 109/253/83 108/239/83
f 105/254/84 144/255/84 121/246/84
f 98/251/79 125/256/79 99/257/79
f 113/258/85 128/259/85 104/260/85
f 125/261/86 110/262/86 99/263/86
f 123/264/87 113/265/87 101/266/87
f 140/267/3 117/268/3 116/269/3
f 107/270/88 139/271/88 114/272/88
f 100/273/88 123/264/88 101/266/88
f 117/268/89 130/274/89 106/275/89
f 114/276/90 145/277/90 120/278/90
f 111/236/91 124/279/91 100/280/91
f 130/281/87 107/270/87 106/282/87
f 110/262/3 140/267/3 116/269/3
f 142/244/92 119/237/92 118/245/92
f 134/283/5 140/228/8 135/223/5
f 116/207/6 111/284/7 110/201/7
f 104/260/93 127/285/93 105/254/93
f 145/277/1 102/234/1 120/278/1
f 144/286/8 126/217/5 145/231/5
f 102/195/7 121/287/6 120/211/7
f 39/288/94 82/289/94 81/290/95
f 83/291/96 56/292/96 84/293/96
f 68/294/97 82/295/98 69/296/98
f 68/294/99 56/297/100 85/298/99
f 40/299/101 57/300/102 83/301/102
f 39/302/103 146/303/103 40/299/103
f 37/54/104 83/143/105 31/304/106
f 78/148/107 82/140/108 85/305/107
f 32/142/109 68/89/109 67/306/109
f 76/307/110 81/308/110 80/139/110
f 76/307/111 57/69/111 146/309/111
f 38/310/112 69/90/113 39/55/112
f 2/1/1 3/311/1 4/2/1
f 5/4/2 6/312/2 7/5/2
f 8/7/3 7/313/3 9/8/3
f 11/10/4 12/314/4 2/11/4
f 8/13/5 10/315/8 13/14/5
f 3/16/6 2/316/7 12/17/7
f 14/18/6 12/17/7 15/19/7
f 13/14/5 11/30/8 16/21/8
f 15/22/4 12/314/4 11/10/4
f 14/18/6 6/20/7 17/24/6
f 4/26/2 3/317/2 14/27/2
f 4/29/8 16/21/8 11/30/8
f 10/32/4 9/318/4 15/22/4
f 6/20/7 15/19/7 9/33/7
f 19/35/9 20/319/9 21/36/9
f 23/38/10 24/320/10 25/39/10
f 25/39/11 27/321/11 28/41/12
f 28/42/7 27/322/6 20/43/6
f 21/36/13 29/323/13 30/44/14
f 29/45/8 24/324/8 23/46/5
f 31/48/15 32/325/15 33/49/15
f 23/51/16 35/64/114 36/52/16
f 37/54/17 38/310/18 39/55/18
f 41/57/19 42/145/20 43/58/20
f 46/60/21 47/138/21 48/61/22
f 26/63/23 49/75/23 35/64/24
f 51/65/25 52/95/25 53/66/26
f 55/68/28 56/149/28 57/69/29
f 45/71/14 58/326/14 59/72/14
f 28/74/30 60/85/30 49/75/30
f 59/76/8 61/327/8 62/77/8
f 41/57/31 44/59/31 64/79/31
f 61/81/10 51/328/10 63/82/10
f 28/74/32 19/151/33 65/84/33
f 63/82/11 51/328/11 50/86/11
f 66/88/34 67/306/35 68/89/35
f 50/91/6 70/329/6 42/92/6
f 51/65/36 61/146/37 71/94/37
f 70/96/9 58/326/9 45/71/9
f 65/98/9 73/112/9 74/99/9
f 53/101/6 60/330/6 65/102/7
f 49/104/11 60/331/11 53/105/11
f 35/107/10 49/104/10 52/106/10
f 75/109/8 36/332/8 35/110/8
f 73/112/13 36/333/13 75/113/13
f 48/114/38 47/334/38 54/115/38
f 47/117/39 77/335/39 55/118/39
f 55/120/40 77/336/40 64/121/40
f 78/122/41 64/121/41 44/123/41
f 79/125/42 44/337/42 43/126/42
f 43/128/43 48/114/43 76/116/43
f 58/130/44 74/147/44 75/131/44
f 50/67/45 53/66/45 72/133/46
f 30/53/47 36/52/47 73/135/47
f 62/137/49 77/150/49 47/138/50
f 80/139/51 81/308/51 82/140/51
f 32/142/52 31/304/52 83/143/52
f 42/145/53 45/62/115 48/61/54
f 59/132/55 75/131/55 71/94/56
f 70/134/57 72/133/57 74/147/57
f 78/148/58 85/305/58 56/149/59
f 63/80/60 64/79/60 77/150/60
f 19/151/62 22/136/62 73/135/62
f 38/152/63 86/338/116 87/153/63
f 37/155/65 31/339/65 34/156/65
f 32/158/66 67/164/66 89/159/66
f 37/155/67 88/157/67 86/161/67
f 66/163/68 87/340/68 89/159/68
f 33/165/1 86/169/1 88/166/1
f 89/168/1 87/341/1 86/169/1
f 21/170/69 90/181/69 91/171/69
f 24/173/70 29/172/70 91/171/70
f 25/175/71 24/173/71 92/174/71
f 25/175/73 93/176/73 94/177/73
f 27/178/74 94/177/117 95/179/74
f 20/180/76 95/179/76 90/181/76
f 92/174/3 91/171/3 90/181/3
f 90/181/3 95/179/3 94/177/3
f 94/177/3 93/176/3 92/174/3
f 16/182/1 14/342/1 18/183/1
f 6/185/3 5/343/3 97/186/3
f 16/21/8 96/344/5 97/188/5
f 97/189/2 96/345/2 18/190/2
f 98/192/7 99/202/6 100/193/6
f 102/195/7 103/203/7 104/196/7
f 107/198/6 108/206/6 109/199/6
f 110/201/7 111/284/7 100/193/6
f 103/203/7 112/210/7 113/204/7
f 107/198/6 114/212/6 115/205/6
f 116/207/6 117/213/6 118/208/6
f 98/192/7 101/194/7 113/204/7
f 120/211/7 121/287/6 115/205/6
f 117/213/6 106/200/7 109/199/6
f 122/214/5 123/346/5 124/215/8
f 126/217/5 127/347/5 128/218/5
f 131/220/8 132/348/8 133/221/8
f 124/215/8 134/283/5 135/223/5
f 129/219/5 128/218/5 136/224/5
f 133/221/8 132/348/8 138/226/8
f 140/228/8 141/349/5 142/229/8
f 136/224/5 123/346/5 122/214/5
f 138/226/8 144/286/8 145/231/5
f 143/230/8 142/229/8 131/220/8
f 126/232/1 129/350/1 103/233/1
f 141/235/78 134/351/78 111/236/78
f 138/238/79 132/252/79 108/239/79
f 103/233/80 129/350/80 137/241/80
f 109/243/81 131/352/81 142/244/81
f 121/246/82 144/255/82 138/247/82
f 112/249/83 137/353/83 122/250/83
f 132/252/83 131/354/83 109/253/83
f 105/254/84 127/285/84 144/255/84
f 98/251/79 122/250/79 125/256/79
f 113/258/85 136/355/85 128/259/85
f 125/261/86 135/356/86 110/262/86
f 123/264/87 136/357/87 113/265/87
f 140/267/3 143/358/3 117/268/3
f 107/270/88 133/359/88 139/271/88
f 100/273/88 124/360/88 123/264/88
f 117/268/89 143/358/89 130/274/89
f 114/276/90 139/361/90 145/277/90
f 111/236/91 134/351/91 124/279/91
f 130/281/87 133/359/87 107/270/87
f 110/262/3 135/356/3 140/267/3
f 142/244/92 141/235/92 119/237/92
f 134/283/5 141/349/5 140/228/8
f 116/207/6 119/209/7 111/284/7
f 104/260/93 128/259/93 127/285/93
f 145/277/1 126/232/1 102/234/1
f 144/286/8 127/347/5 126/217/5
f 102/195/7 105/197/7 121/287/6
f 39/288/94 69/362/94 82/289/94
f 83/291/96 57/363/96 56/292/96
f 68/294/97 85/298/97 82/295/98
f 68/294/99 84/364/100 56/297/100
f 40/299/101 146/303/101 57/300/102
f 39/302/103 81/365/103 146/303/103
f 37/54/104 40/56/104 83/143/105
f 78/148/107 79/141/108 82/140/108
f 32/142/109 84/144/109 68/89/109
f 76/307/110 146/309/110 81/308/110
f 76/307/111 54/70/111 57/69/111
f 38/310/112 66/88/113 69/90/113
